HIERARCHY
ROOT Hips
{
    OFFSET 0.000000 0.000000 0.000000
    CHANNELS 6 Xposition Yposition Zposition Zrotation Xrotation Yrotation
    JOINT Spine
    {
        OFFSET -0.000000 8.603107 0.000000
        CHANNELS 3 Zrotation Xrotation Yrotation
        JOINT Spine1
        {
            OFFSET -0.000000 23.906662 0.000000
            CHANNELS 3 Zrotation Xrotation Yrotation
            JOINT Neck
            {
                OFFSET -0.000000 23.808481 2.164407
                CHANNELS 3 Zrotation Xrotation Yrotation
                JOINT Head
                {
                    OFFSET -0.000000 14.688231 -2.098319
                    CHANNELS 3 Zrotation Xrotation Yrotation
                    End Site
                    {
                        OFFSET -0.000000 26.228985 0.000000
                    }
                }
            }
            JOINT LeftShoulder
            {
                OFFSET 4.178941 22.658146 -0.129871
                CHANNELS 3 Zrotation Xrotation Yrotation
                JOINT LeftArm
                {
                    OFFSET 9.497952 0.000000 0.000000
                    CHANNELS 3 Zrotation Xrotation Yrotation
                    JOINT LeftForeArm
                    {
                        OFFSET 38.855015 0.000000 0.000000
                        CHANNELS 3 Zrotation Xrotation Yrotation
                        JOINT LeftHand
                        {
                            OFFSET 24.940550 0.000000 0.000000
                            CHANNELS 3 Zrotation Xrotation Yrotation
                            End Site
                            {
                                OFFSET 15.737392 0.000000 0.000000
                            }
                        }
                    }
                }
            }
            JOINT RightShoulder
            {
                OFFSET -4.145384 22.658146 -0.129871
                CHANNELS 3 Zrotation Xrotation Yrotation
                JOINT RightArm
                {
                    OFFSET -9.497952 0.000000 0.000000
                    CHANNELS 3 Zrotation Xrotation Yrotation
                    JOINT RightForeArm
                    {
                        OFFSET -38.855015 0.000000 0.000000
                        CHANNELS 3 Zrotation Xrotation Yrotation
                        JOINT RightHand
                        {
                            OFFSET -24.940550 0.000000 0.000000
                            CHANNELS 3 Zrotation Xrotation Yrotation
                            End Site
                            {
                                OFFSET -15.737392 0.000000 0.000000
                            }
                        }
                    }
                }
            }
        }
    }
    JOINT LeftUpLeg
    {
        OFFSET 10.491594 0.000000 0.000000
        CHANNELS 3 Zrotation Xrotation Yrotation
        JOINT LeftLeg
        {
            OFFSET -0.000000 -46.080647 0.000000
            CHANNELS 3 Zrotation Xrotation Yrotation
            JOINT LeftFoot
            {
                OFFSET -0.000000 -50.184704 0.000000
                CHANNELS 3 Zrotation Xrotation Yrotation
                JOINT LeftToeBase
                {
                    OFFSET -0.000000 -6.819536 15.737392
                    CHANNELS 3 Zrotation Xrotation Yrotation
                    End Site
                    {
                        OFFSET -0.000000 0.000000 4.196638
                    }
                }
            }
        }
    }
    JOINT RightUpLeg
    {
        OFFSET -10.491594 0.000000 0.000000
        CHANNELS 3 Zrotation Xrotation Yrotation
        JOINT RightLeg
        {
            OFFSET -0.000000 -46.080647 0.000000
            CHANNELS 3 Zrotation Xrotation Yrotation
            JOINT RightFoot
            {
                OFFSET -0.000000 -50.184704 0.000000
                CHANNELS 3 Zrotation Xrotation Yrotation
                JOINT RightToeBase
                {
                    OFFSET -0.000000 -6.819536 15.737392
                    CHANNELS 3 Zrotation Xrotation Yrotation
                    End Site
                    {
                        OFFSET -0.000000 0.000000 4.196638
                    }
                }
            }
        }
    }
}
MOTION
Frames:    11
Frame Time:    0.008333
41.650444    144.744781    50.417866    -0.197073    -0.295347    97.753601    -2.216468    -6.175951    0.525632    3.169064    2.207841    0.584149    3.258973    13.102619    0.112624    1.993763    0.966549    0.288126    11.403465    -0.752317    -10.366995    -21.971231    2.261930    6.388224    2.312199    -4.073703    -0.410319    -0.016607    -4.065740    1.962479    -14.065331    0.722308    -11.272708    17.523796    -4.128716    2.758664    -0.808219    -5.661199    -0.144704    -3.573794    -5.593421    -2.215657    1.131737    0.060617    0.827040    0.000000    0.000000    0.000000    0.000000    0.000000    0.000000    0.000000    0.000000    0.000000    2.574335    5.904963    -1.819301    1.153005    -0.148750    -1.228728    -6.359975    -5.451016    -11.050180    0.000000    0.000000    0.000000    
41.669102    144.750107    50.412403    -0.202698    -0.297762    97.770554    -2.188718    -6.172360    0.507406    3.143843    2.190814    0.565409    3.228035    13.154960    0.123251    2.022422    0.986367    0.307980    11.375794    -0.755141    -10.311634    -21.942221    2.269768    6.395352    2.305894    -4.052426    -0.371630    -0.054932    -4.045835    1.815587    -14.093257    0.728586    -11.252413    17.555580    -4.186805    2.767922    -0.827784    -5.662581    -0.130202    -3.550680    -5.595632    -2.200427    1.133570    0.058000    0.822170    4.793306    11.010515    -2.794816    -9.662785    -12.394809    -15.969926    0.000000    0.000000    0.000000    2.574377    5.917317    -1.845387    1.153345    -0.171810    -1.255580    -6.345431    -5.418057    -11.004554    0.000000    0.000000    0.000000    
41.682987    144.752151    50.408218    -0.198845    -0.293208    97.774048    -2.083961    -6.158854    0.546599    2.894594    2.171781    0.603859    3.451248    13.157331    0.096626    1.964570    1.017236    0.247920    11.563708    -0.739129    -10.391196    -21.997898    2.188469    6.412837    2.326010    -4.032791    -0.365239    -0.087086    -4.026756    1.809383    -13.869946    0.676177    -11.313373    17.469290    -4.148378    2.746661    -0.842229    -5.671100    -0.117787    -3.524055    -5.604774    -2.194681    1.128209    0.071394    0.810700    4.049496    11.751059    -3.232665    -13.176002    -13.059280    -14.171875    0.000000    0.000000    0.000000    2.566966    5.933123    -1.858622    1.153101    -0.171984    -1.257470    -6.332479    -5.414004    -10.982428    0.000000    0.000000    0.000000    
41.691776    144.755676    50.405144    -0.196979    -0.300349    97.781853    -2.091111    -6.171727    0.550565    2.922739    2.205907    0.607133    3.437813    13.121921    0.083358    1.980820    1.061250    0.246255    11.564461    -0.767458    -10.385047    -22.016733    2.200522    6.412125    2.319744    -4.043064    -0.367223    -0.095390    -4.037129    1.776383    -13.890042    0.650115    -11.354037    17.474344    -4.179096    2.766418    -0.838040    -5.660400    -0.115347    -3.541403    -5.593330    -2.207201    1.128225    0.065215    0.818830    4.049496    11.751059    -3.232665    -11.364238    -14.310178    -11.601410    0.000000    0.000000    0.000000    2.570670    5.941103    -1.862447    1.156579    -0.184932    -1.257866    -6.329559    -5.382624    -10.980237    0.000000    0.000000    0.000000    
41.700375    144.758560    50.401802    -0.196431    -0.299226    97.792259    -2.077749    -6.176114    0.533867    2.910697    2.215025    0.589762    3.408805    13.130739    0.096261    1.998381    1.068906    0.262908    11.558547    -0.760081    -10.346549    -22.018343    2.209396    6.414892    2.321487    -4.065321    -0.383744    -0.119170    -4.059424    1.793570    -13.909681    0.645732    -11.323831    17.497202    -4.205292    2.770645    -0.831466    -5.665385    -0.115870    -3.596490    -5.596760    -2.222916    1.123239    0.040308    0.974534    4.049496    11.751059    -3.232665    -11.317410    -14.282455    -11.709957    0.000000    0.000000    0.000000    2.564282    5.947495    -1.863326    1.160630    -0.195321    -1.277367    -6.320766    -5.363617    -10.951786    0.000000    0.000000    0.000000    
41.710255    144.761353    50.400620    -0.188653    -0.308986    97.793297    -2.064967    -6.180624    0.537119    2.906979    2.234257    0.591983    3.419387    13.145509    0.096114    1.991862    1.054773    0.253019    11.573754    -0.775625    -10.351677    -22.038679    2.215801    6.432274    2.313376    -4.058102    -0.382549    -0.155069    -4.052814    1.773929    -13.903231    0.648322    -11.335200    17.499376    -4.241537    2.783707    -0.712601    -5.845403    -0.016801    -4.303434    -5.753409    -2.463500    1.123277    0.043026    0.976825    4.049496    11.751059    -3.232665    -11.267486    -14.298277    -11.680354    0.000000    0.000000    0.000000    2.575848    5.958609    -1.862253    1.162317    -0.186972    -1.279504    -6.326172    -5.358763    -10.965371    0.000000    0.000000    0.000000    
41.717838    144.765381    50.396835    -0.187285    -0.312218    97.798332    -2.156368    -6.203393    0.500843    3.146371    2.266039    0.555437    3.199605    13.156485    0.123877    2.045360    1.066569    0.311286    11.383417    -0.777444    -10.285568    -21.989540    2.260646    6.436451    2.289979    -4.072602    -0.390600    -0.166004    -4.067411    1.784805    -14.149747    0.691482    -11.293315    17.613209    -4.317204    2.824935    -0.734439    -5.807661    -0.038656    -3.982971    -5.728663    -2.290267    1.118570    0.033986    0.959965    4.049496    11.751059    -3.232665    -11.252542    -14.279747    -11.660079    0.000000    0.000000    0.000000    2.573234    5.960482    -1.869239    1.168653    -0.183597    -1.269427    -6.276512    -5.340751    -10.970308    0.000000    0.000000    0.000000    
41.727871    144.767517    50.396824    -0.177932    -0.324045    97.800156    -2.135642    -6.218339    0.502082    3.135191    2.306524    0.554957    3.207628    13.153816    0.124171    2.039449    1.049204    0.309551    11.397093    -0.789954    -10.269876    -21.995890    2.253863    6.423563    2.285682    -4.092272    -0.420864    -0.207114    -4.087392    1.939959    -14.158654    0.682583    -11.306225    17.632799    -4.333681    2.841183    -0.842900    -5.622391    -0.138574    -3.323082    -5.564259    -2.048676    1.127547    0.039293    0.967415    4.049496    11.751059    -3.232665    -11.210860    -14.287039    -11.654632    0.000000    0.000000    0.000000    2.588220    5.969373    -1.868257    1.164051    -0.182099    -1.277830    -6.294054    -5.315596    -10.962599    0.000000    0.000000    0.000000    
41.736782    144.770493    50.398151    -0.168619    -0.331797    97.805527    -2.136125    -6.197293    0.497045    3.148241    2.271908    0.550287    3.098760    13.404924    0.040331    2.262050    0.668815    0.268550    11.374054    -0.800353    -10.274201    -21.991167    2.271298    6.440765    2.280644    -4.090195    -0.401353    -0.232214    -4.086163    1.942436    -14.139688    0.701708    -11.279261    17.616383    -4.345568    2.832634    -0.847619    -5.619807    -0.141287    -3.292942    -5.562204    -2.049882    1.136951    0.039123    0.972292    4.049496    11.751059    -3.232665    -11.197554    -14.266997    -11.671218    0.000000    0.000000    0.000000    2.595814    5.978738    -1.858963    1.157604    -0.183735    -1.266278    -6.273648    -5.293360    -10.960706    0.000000    0.000000    0.000000    
41.743462    144.771530    50.398731    -0.160362    -0.337647    97.815819    -2.133667    -6.216151    0.492739    3.158015    2.329276    0.544467    3.209995    13.147650    0.140600    2.031073    1.071279    0.324986    11.388523    -0.817205    -10.254053    -22.007931    2.274827    6.427659    2.266382    -4.095448    -0.393655    -0.256325    -4.092012    1.943045    -14.177097    0.670306    -11.305353    17.652458    -4.330821    2.855386    -0.849648    -5.643270    -0.141899    -3.285693    -5.585628    -2.055924    1.147382    0.039117    0.971659    4.049496    11.751059    -3.232665    -11.210799    -14.235591    -11.695551    0.000000    0.000000    0.000000    2.605195    5.983434    -1.877611    1.164868    -0.159137    -1.272829    -6.311696    -5.290671    -10.968321    0.000000    0.000000    0.000000    
41.749462    144.772415    50.398720    -0.155725    -0.341172    97.814110    -2.121752    -6.208292    0.486009    3.143395    2.312954    0.537645    3.190062    13.171828    0.152252    2.082731    1.076341    0.344540    11.379003    -0.813401    -10.230928    -21.999733    2.319965    6.425107    2.259968    -4.113570    -0.384077    -0.284962    -4.110902    1.971088    -14.151753    0.679802    -11.257874    17.636074    -4.327813    2.841979    -0.833230    -5.681742    -0.149014    -3.347624    -5.622166    -2.085440    1.152112    0.037325    0.988333    4.049496    11.751059    -3.232665    -11.305126    -14.196660    -11.736573    0.000000    0.000000    0.000000    2.610831    5.981797    -1.883525    1.165173    -0.152792    -1.268655    -6.305956    -5.272654    -10.967214    0.000000    0.000000    0.000000    
